<?xml version="1.0" encoding="UTF-8"?><svg id="Capa_1" xmlns="http://www.w3.org/2000/svg" viewBox="0 0 295.43 375.05"><defs><style>.cls-1{fill:#709646;stroke-width:0px;}</style></defs><path class="cls-1" d="m295.43,140.45c-.45,24.42-7.48,47.1-17.31,69-16.26,36.24-38.56,68.8-62.91,99.97-13.65,17.47-27.94,34.46-42.37,51.31-7.29,8.51-15.77,15.36-28.35,14.2-9.81-.91-16.5-6.84-22.36-13.51-34.24-38.95-65.93-79.81-92.11-124.7-9.42-16.16-18.62-32.61-23.72-50.62-11.37-40.11-7.86-79.12,14.62-114.68C54.29,18.66,103.2-5.11,165.28.91c62.55,6.07,114.78,54.18,127.16,115.1,1.63,8.02,2.02,16.29,2.99,24.44Zm-214.66,6.59c.02,37.44,29.51,66.92,66.98,66.96,37.51.03,67.11-29.38,67.18-66.77.07-37.65-29.5-67.19-67.2-67.16-37.47.04-66.98,29.54-66.96,66.97Z"/></svg>