<?xml version="1.0" encoding="UTF-8"?><svg id="Capa_1" xmlns="http://www.w3.org/2000/svg" viewBox="0 0 384.51 384.51"><defs><style>.cls-1{fill:#709646;stroke-width:0px;}</style></defs><path class="cls-1" d="m183.05,44.54c6.15,0,12.31,0,18.46,0,.74.16,1.47.42,2.22.47,23,1.72,44.53,8.32,64.15,20.4,38.13,23.47,61.62,57.24,69.84,101.39,1,5.36,1.52,10.81,2.27,16.22v18.46c-.24,1.89-.5,3.78-.71,5.68-3.16,29.22-13.75,55.43-32.4,78.15-23.19,28.26-52.85,45.81-88.89,52.36-5.46.99-10.99,1.54-16.49,2.29h-18.46c-3.61-.44-7.22-.83-10.82-1.34-27.25-3.88-51.73-14.26-73-31.75-28.24-23.22-45.82-52.84-52.37-88.88-.99-5.46-1.54-11-2.3-16.51,0-6.15,0-12.31,0-18.46.23-1.89.49-3.78.7-5.68,3.42-31.29,15.25-58.96,36.12-82.55,22.95-25.94,51.54-42.07,85.73-48.03,5.28-.92,10.62-1.49,15.93-2.23Zm-76.73,235.07c1.23-.25,2.05-.39,2.86-.6,13.84-3.61,27.65-7.28,41.52-10.77,1.49-.37,3.45-.12,4.84.56,16.23,7.97,33.3,11.01,51.22,8.71,49.17-6.3,83.54-52.2,76.02-101.36-7.42-48.48-53.73-81.77-102.16-73.44-59.66,10.27-91.62,75.67-63.14,129.06.71,1.33.89,3.33.5,4.8-3.74,14.19-7.66,28.34-11.67,43.02Z"/><path class="cls-1" d="m127.52,258.77c2.29-8.42,4.37-16.37,6.65-24.26.59-2.05.31-3.58-.79-5.36-27-43.7-3.83-99.41,46.15-111.04,40.76-9.49,82.14,18.69,88.42,60.21,6.13,40.55-20.98,77.83-61.45,84.14-17.43,2.72-33.8-.77-49.08-9.61-1.22-.71-3.1-.94-4.49-.61-8.3,2-16.54,4.22-25.41,6.53Zm90.97-26.47c1.45-.09,2.82-.02,4.13-.28,10.21-2.07,17.88-7.94,17.54-18.98-.03-1.07-.65-2.66-1.47-3.08-6.15-3.13-12.4-6.07-18.66-8.98-1.8-.84-3.27-.25-4.5,1.38-2.08,2.76-4.33,5.38-6.48,8.1-1.33,1.69-2.88,1.93-4.84,1.15-12.97-5.17-22.85-13.88-30.04-25.79-1.13-1.87-.94-3.31.42-4.93,1.78-2.14,3.59-4.31,4.96-6.7.71-1.24,1.09-3.22.62-4.5-2.16-5.84-4.62-11.58-7.13-17.29-.5-1.15-1.48-2.36-2.56-2.93-2.95-1.56-9.51-.35-11.92,2-6.89,6.7-9.31,14.81-7.39,24.19,1.64,8.03,6.15,14.61,10.98,20.99,9.33,12.34,20.17,22.97,34.5,29.38,6.99,3.13,14.06,6.25,21.86,6.29Z"/></svg>